# xmcd
#
# Track frame offsets:
#	150
#	12823
#	27331
#	38124
#	46017
#	63759
#	83737
#	104424
#	117580
#	133396
#	142143
#	154727
#	172687
#	186454
#	197090
#
# Disc length: 2698 seconds
#
# Revision: 1
# Processed by: cddbd v1.5.2PL0 Copyright (c) Steve Scherf et al.
# Submitted via: audiograbber 1.83.01
#
DISCID=cb0a880f
DTITLE=Thomas Strauch - Unterm Spiegel
DYEAR=2014
DGENRE=folk
TTITLE0=Zweifel
TTITLE1=Zwei mal Zwei
TTITLE2=Die Traumtänzerin
TTITLE3=Lottchens Tanzbein
TTITLE4=Es fuhr ein Bauer gen Holz
TTITLE5=Heißer Herbst
TTITLE6=Unterm Spiegel
TTITLE7=Weißenseer Lied
TTITLE8=Rügen
TTITLE9=Bourrée für Gunhild
TTITLE10=Ladykiller
TTITLE11=Liebesschluss
TTITLE12=Old Love
TTITLE13=Morgen mit leichter Verstimmung
TTITLE14=Ich bin wie ein Stein
EXTD=
EXTT0=
EXTT1=
EXTT2=
EXTT3=
EXTT4=
EXTT5=
EXTT6=
EXTT7=
EXTT8=
EXTT9=
EXTT10=
EXTT11=
EXTT12=
EXTT13=
EXTT14=
PLAYORDER=
